<svg width="120" height="61" viewBox="0 0 120 61" fill="none" xmlns="http://www.w3.org/2000/svg">
<g clip-path="url(#clip0_7_814)">
<path d="M115.601 42.9523C115.819 43.0984 116.078 43.1702 116.339 43.157C116.601 43.1439 116.851 43.0465 117.053 42.8794L118.948 40.9822C119.057 40.8842 119.145 40.764 119.206 40.6296C119.266 40.4952 119.297 40.3495 119.297 40.2022C119.297 40.0549 119.266 39.9093 119.206 39.7748C119.145 39.6404 119.057 39.5203 118.948 39.4222L117.728 38.1751C117.065 37.4213 116.711 36.4446 116.737 35.441V16.449C116.747 16.2194 116.711 15.9902 116.63 15.7751C116.549 15.56 116.425 15.3635 116.266 15.1974C116.107 15.0308 115.916 14.8981 115.704 14.807C115.492 14.7159 115.264 14.6684 115.033 14.6673H113.432C113.201 14.6631 112.972 14.7052 112.757 14.791C112.543 14.8768 112.348 15.0047 112.183 15.167C111.852 15.4951 111.669 15.9417 111.675 16.4065V35.7128C111.679 37.1503 112.04 38.5642 112.725 39.8277C113.41 41.0912 114.399 42.1649 115.601 42.9523ZM105.779 42.9523C105.994 43.101 106.252 43.1745 106.513 43.1613C106.774 43.1481 107.024 43.049 107.222 42.8794L109.127 40.9822C109.235 40.8842 109.322 40.7647 109.381 40.6313C109.44 40.4978 109.471 40.3535 109.471 40.2075C109.471 40.0616 109.44 39.9172 109.381 39.7838C109.322 39.6504 109.235 39.5308 109.127 39.4328L107.906 38.1751C107.242 37.4259 106.889 36.4521 106.917 35.4516V16.4901C106.923 16.0253 106.739 15.5787 106.407 15.2506C106.242 15.0882 106.047 14.9603 105.833 14.8745C105.619 14.7887 105.389 14.7466 105.158 14.7508H103.601C103.371 14.7466 103.141 14.7887 102.927 14.8749C102.713 14.961 102.519 15.0893 102.356 15.2521C102.026 15.5787 101.845 16.0268 101.854 16.4901V35.7447C101.861 37.1771 102.223 38.5855 102.908 39.8434C103.593 41.1014 104.58 42.1697 105.779 42.9523ZM75.79 24.2217H73.3278C72.9827 24.216 72.6455 24.3251 72.3692 24.5318C72.0928 24.7386 71.8931 25.0313 71.8012 25.364L68.7693 35.1797L65.6113 25.3215C65.5057 25.0004 65.3011 24.721 65.0268 24.5234C64.7525 24.3258 64.4227 24.2202 64.0847 24.2217H61.9794C61.2959 24.2217 60.6913 24.6683 60.4954 25.3215L57.2857 35.1478L54.2538 25.364C54.1636 25.0304 53.9642 24.7366 53.6875 24.5296C53.4108 24.3225 53.0728 24.2141 52.7273 24.2217H50.2741C50.1001 24.2111 49.9261 24.2439 49.7679 24.3171C49.6096 24.3902 49.4719 24.5015 49.3673 24.6409C49.2629 24.7799 49.1949 24.9427 49.1695 25.1146C49.144 25.2865 49.1619 25.462 49.2214 25.6253L54.6321 42.0729C54.8371 42.7184 55.4356 43.162 56.1161 43.1726H58.4326C59.1571 43.2075 59.8088 42.7366 60.0002 42.041L63.0321 31.9427L66.1916 42.041C66.3769 42.7169 67.0012 43.1832 67.706 43.1726H69.9997C70.6817 43.1589 71.2786 42.7169 71.4852 42.0729L76.8427 25.6253C76.9023 25.462 76.9201 25.2865 76.8947 25.1146C76.8692 24.9427 76.8012 24.7799 76.6969 24.6409C76.5922 24.5015 76.4545 24.3902 76.2963 24.3171C76.138 24.2439 75.9641 24.2111 75.79 24.2217ZM96.1794 24.2217H94.6118C93.6579 24.2217 92.8802 24.9812 92.865 25.929C91.3269 24.58 89.3514 23.8351 87.3055 23.8328C82.3171 23.8328 78.2751 28.2759 78.2751 33.6911C78.2751 39.1078 82.3156 43.6222 87.3055 43.6222C89.3618 43.6162 91.3427 42.8476 92.865 41.4653L94.4645 43.2455H96.1809C96.6457 43.2455 97.0923 43.0572 97.4159 42.723C97.7394 42.3888 97.9126 41.9392 97.8959 41.4744V25.9716C97.9003 25.7412 97.8582 25.5122 97.772 25.2985C97.6859 25.0847 97.5575 24.8905 97.3946 24.7275C97.2312 24.5644 97.0368 24.4357 96.8229 24.3488C96.609 24.2619 96.3799 24.2187 96.149 24.2217H96.1794ZM88.1485 39.2749C85.5161 39.2749 83.4214 36.8141 83.4214 33.7761C83.4214 30.7382 85.5267 28.2759 88.1485 28.2759C90.7688 28.2759 92.8331 30.7063 92.8331 33.7746C92.8331 36.8445 90.7278 39.2749 88.1485 39.2749Z" fill="black"/>
<path d="M42.1065 14.751H40.5693C40.3383 14.7468 40.1089 14.7889 39.8945 14.8747C39.68 14.9605 39.4849 15.0884 39.3206 15.2508C38.9895 15.5789 38.8042 16.0254 38.8118 16.4902V25.9186C37.2737 24.5695 35.2982 23.8247 33.2523 23.8224C28.2639 23.8452 24.2113 28.2867 24.2113 33.6609C24.2113 39.0351 28.2533 43.5601 33.2432 43.5601C35.3003 43.5516 37.2866 42.8082 38.8437 41.4639L40.4007 43.2032H42.1065C42.3367 43.2089 42.5657 43.168 42.7796 43.0829C42.9936 42.9977 43.1881 42.8701 43.3513 42.7077C43.5146 42.5453 43.6432 42.3515 43.7295 42.1379C43.8158 41.9244 43.8579 41.6957 43.8533 41.4654V16.4902C43.8624 16.027 43.6801 15.5789 43.352 15.2508C43.1885 15.0882 42.994 14.9602 42.78 14.8743C42.566 14.7885 42.337 14.7465 42.1065 14.751ZM34.106 39.2356C31.4751 39.2356 29.3804 36.7733 29.3804 33.7353C29.3804 30.6973 31.4857 28.2457 34.106 28.2457C36.7277 28.2457 38.7905 30.7064 38.7905 33.7353C38.7905 36.7626 36.6852 39.234 34.106 39.234V39.2356ZM18.6639 22.2943C19.2526 22.2972 19.829 22.1256 20.3202 21.8012C20.8114 21.4768 21.1955 21.0141 21.4239 20.4715C21.8887 19.3626 21.6366 18.0867 20.786 17.2361C20.3685 16.8199 19.8374 16.5364 19.2592 16.4213C18.6811 16.3061 18.0819 16.3645 17.5368 16.589C16.9929 16.8118 16.5275 17.1913 16.1997 17.6792C15.8719 18.1671 15.6965 18.7414 15.6958 19.3292C15.6958 20.9621 17.0234 22.2882 18.6639 22.2943ZM17.8953 43.1728H19.4963C19.9612 43.1804 20.4108 43.0011 20.7419 42.6715C20.9047 42.5096 21.033 42.3165 21.1191 42.1038C21.2053 41.891 21.2475 41.663 21.2432 41.4335V25.9702C21.2474 25.7401 21.2052 25.5114 21.119 25.298C21.0329 25.0845 20.9046 24.8905 20.7419 24.7277C20.5785 24.5646 20.3841 24.4359 20.1702 24.349C19.9563 24.2621 19.7272 24.2189 19.4963 24.2219H17.8938C17.663 24.2189 17.4338 24.2621 17.2199 24.349C17.006 24.4359 16.8117 24.5646 16.6482 24.7277C16.4853 24.8907 16.357 25.0849 16.2708 25.2987C16.1847 25.5124 16.1426 25.7413 16.147 25.9718V41.4335C16.1379 41.8968 16.3186 42.3449 16.6482 42.673C16.9779 43.0011 17.4275 43.1804 17.8938 43.1728H17.8953ZM57.1688 60.269C57.938 60.2683 58.6764 59.9663 59.2256 59.4276C59.7747 58.889 60.091 58.1566 60.1065 57.3875C60.1151 56.9967 60.0418 56.6085 59.8914 56.2477C59.741 55.8869 59.5167 55.5617 59.2331 55.2928L55.0224 51.1657C54.7508 50.8821 54.4237 50.6576 54.0615 50.506C53.6993 50.3544 53.3097 50.2791 52.9171 50.2847C52.1487 50.288 51.4118 50.5909 50.8632 51.129C50.3147 51.6671 49.9976 52.398 49.9794 53.1662C49.9642 53.9576 50.2847 54.7186 50.8634 55.2624L55.0103 59.4518C55.5677 60.0047 56.3303 60.3039 57.1171 60.2796L57.1688 60.269ZM53.0219 9.93278C53.8133 9.94341 54.5758 9.62898 55.1272 9.06391L59.3379 4.92467C59.8999 4.39303 60.2143 3.65328 60.2113 2.88316C60.2045 2.49386 60.1202 2.10983 59.9632 1.75354C59.8061 1.39726 59.5796 1.07588 59.2968 0.808218C59.0132 0.540013 58.6792 0.330647 58.3142 0.192208C57.9492 0.053769 57.5604 -0.0110014 57.1703 0.00163595C56.7806 -0.00897394 56.3928 0.0598988 56.0306 0.204055C55.6683 0.348211 55.3393 0.56463 55.0634 0.840117L50.9166 5.02797C50.6292 5.29484 50.4018 5.61971 50.2494 5.98109C50.097 6.34246 50.0231 6.73209 50.0325 7.12417C50.0511 7.89186 50.3682 8.6221 50.9164 9.15983C51.4646 9.69756 52.2008 10.0004 52.9687 10.0042L53.0219 9.93278ZM7.0847 9.93278C7.85313 9.92943 8.58996 9.62651 9.13855 9.08842C9.68714 8.55032 10.0042 7.81948 10.0224 7.05126C10.0242 6.66834 9.94659 6.2892 9.79443 5.93781C9.64226 5.58642 9.41887 5.27041 9.13837 5.00974L4.99153 0.840117C4.72189 0.570671 4.40128 0.357623 4.04843 0.213402C3.69557 0.0691814 3.31752 -0.00332378 2.93634 0.000116962C2.16709 0.0011608 1.42887 0.303582 0.879985 0.842533C0.331096 1.38148 0.0152377 2.11405 0.000139517 2.88316C-0.0165693 3.67303 0.300899 4.43252 0.875076 4.97784L5.08571 9.16721C5.6371 9.73379 6.39812 10.0482 7.19103 10.0376L7.0847 9.93278ZM2.93786 60.269C3.32667 60.2817 3.71396 60.2148 4.07599 60.0724C4.43802 59.9301 4.76715 59.7152 5.04318 59.4411L9.19001 55.2502C9.77027 54.708 10.0908 53.947 10.0741 53.1556C10.0555 52.3881 9.73866 51.6581 9.19077 51.1204C8.64287 50.5827 7.90703 50.2797 7.13938 50.2756C6.36318 50.2786 5.62191 50.5945 5.08723 51.1551L0.875076 55.3444C0.300899 55.8913 -0.0165693 56.6507 0.000139517 57.4406C0.0160277 58.2095 0.332441 58.9415 0.881573 59.4798C1.43071 60.0182 2.16886 60.32 2.93786 60.3206" fill="#5500FF"/>
</g>
<defs>
<clipPath id="clip0_7_814">
<rect width="120" height="60.7595" fill="white"/>
</clipPath>
</defs>
</svg>
