<svg width="21" height="16" viewBox="0 0 21 16" fill="none" xmlns="http://www.w3.org/2000/svg">
<path d="M0.622317 3.05592L3.76622 0.391373C4.01181 0.183311 4.41018 0.183378 4.65561 0.391373L7.7994 3.05592C8.19521 3.39131 7.91335 3.96564 7.35468 3.96564H5.46875V14.6235C5.46875 14.9179 5.18719 15.1564 4.83984 15.1564H3.58203C3.23468 15.1564 2.95312 14.9179 2.95312 14.6235V3.96564H1.06703C0.507266 3.96564 0.227324 3.39064 0.622317 3.05592V3.05592ZM9.87109 2.36695H19.9336C20.2809 2.36695 20.5625 2.12838 20.5625 1.83405V0.768264C20.5625 0.473939 20.2809 0.235368 19.9336 0.235368H9.87109C9.52374 0.235368 9.24219 0.473939 9.24219 0.768264V1.83405C9.24219 2.12838 9.52374 2.36695 9.87109 2.36695ZM9.24219 6.09722V5.03143C9.24219 4.7371 9.52374 4.49853 9.87109 4.49853H17.418C17.7653 4.49853 18.0469 4.7371 18.0469 5.03143V6.09722C18.0469 6.39154 17.7653 6.63011 17.418 6.63011H9.87109C9.52374 6.63011 9.24219 6.39154 9.24219 6.09722ZM9.24219 14.6235V13.5578C9.24219 13.2634 9.52374 13.0249 9.87109 13.0249H12.3867C12.7341 13.0249 13.0156 13.2634 13.0156 13.5578V14.6235C13.0156 14.9179 12.7341 15.1564 12.3867 15.1564H9.87109C9.52374 15.1564 9.24219 14.9179 9.24219 14.6235ZM9.24219 10.3604V9.29459C9.24219 9.00027 9.52374 8.76169 9.87109 8.76169H14.9023C15.2497 8.76169 15.5312 9.00027 15.5312 9.29459V10.3604C15.5312 10.6547 15.2497 10.8933 14.9023 10.8933H9.87109C9.52374 10.8933 9.24219 10.6547 9.24219 10.3604Z" fill="#6B31FF"/>
</svg>
